# xmcd CD database file
#
# Track frame offsets:
#	187
#	17490
#	36330
#	53607
#	69992
#	89650
#	108562
#	125342
#	145467
#	166197
#	185867
#	201982
#	222552
#	243065
#	263147
#	281467
#	301420
#
# Disc length: 4327 seconds
#
# Revision: 0
# Processed by: cddbd v1.5.1PL0 Copyright (c) Steve Scherf et al.
# Submitted via: CDex 1.51
#
DISCID=fc10e511
DTITLE=森進一 - 森 進一 全曲集
DYEAR=1991
DGENRE=Blues
TTITLE0=女のためいき
TTITLE1=命かれても
TTITLE2=花と蝶
TTITLE3=ひとり酒場で
TTITLE4=年上の女（ひと）
TTITLE5=港町ブルース
TTITLE6=おふくろさん
TTITLE7=放浪船（さすらいぶね）
TTITLE8=冬の旅
TTITLE9=襟裳岬
TTITLE10=新宿・港町
TTITLE11=冬のリヴィエラ
TTITLE12=北の蛍
TTITLE13=昭和流れうた
TTITLE14=ゆうすげの恋
TTITLE15=酒無情
TTITLE16=泣かせ雨
EXTD=YEAR: 1991
EXTT0=
EXTT1=
EXTT2=
EXTT3=
EXTT4=
EXTT5=
EXTT6=
EXTT7=
EXTT8=
EXTT9=
EXTT10=
EXTT11=
EXTT12=
EXTT13=
EXTT14=
EXTT15=
EXTT16=
PLAYORDER=
